<svg xmlns="http://www.w3.org/2000/svg" viewBox="0 0 12.48 12.48"><defs><style>.cls-1{fill:#fff;}</style></defs><g id="Layer_2" data-name="Layer 2"><g id="Слой_1" data-name="Слой 1"><g id="m7Zcdt.tif"><path class="cls-1" d="M6.87,12.48H5.6a.21.21,0,0,0-.1,0A6.14,6.14,0,0,1,.28,8.07,9.13,9.13,0,0,1,0,6.87V5.61c0-.15.07-.3.09-.45A6.23,6.23,0,0,1,12.42,7,6,6,0,0,1,8.07,12.2,9.94,9.94,0,0,1,6.87,12.48Zm-.64-1.22a5,5,0,1,0-5-5A5,5,0,0,0,6.23,11.26Z"/><path class="cls-1" d="M6.79,9.08v.61h-1V9.13c-.3-.08-.6-.13-.88-.22C4.2,8.7,4.2,8.69,4.41,8c0-.16.09-.32.14-.47.43.1.84.23,1.26.3a1.79,1.79,0,0,0,.76-.07c.32-.11.35-.42.06-.61A3.12,3.12,0,0,0,6,6.88a8.76,8.76,0,0,1-.89-.37,1.5,1.5,0,0,1-.07-2.67,2,2,0,0,1,.55-.25.24.24,0,0,0,.2-.29c0-.15,0-.29,0-.45h1v.58l1.37.28L7.88,4.89c-.32-.08-.62-.18-.92-.23a2.55,2.55,0,0,0-.73,0A.5.5,0,0,0,5.9,5c-.07.18.08.32.24.39s.5.2.74.32a6.78,6.78,0,0,1,1,.57,1.49,1.49,0,0,1-.15,2.46A8,8,0,0,1,6.79,9.08Z"/></g></g></g></svg>