<svg xmlns="http://www.w3.org/2000/svg" xmlns:xlink="http://www.w3.org/1999/xlink" viewBox="0 0 93.44 15.01"><defs><style>.cls-1{fill:url(#Безымянный_градиент_25);}.cls-2{fill:#fff;}</style><linearGradient id="Безымянный_градиент_25" y1="7.55" x2="15.52" y2="7.55" gradientUnits="userSpaceOnUse"><stop offset="0" stop-color="#f5a138"/><stop offset="0.19" stop-color="#ee792f"/><stop offset="0.38" stop-color="#ea5f2a"/><stop offset="0.58" stop-color="#e63f24"/><stop offset="0.78" stop-color="#d32216"/><stop offset="1" stop-color="#881812"/></linearGradient></defs><g id="Layer_2" data-name="Layer 2"><g id="Слой_1" data-name="Слой 1"><path class="cls-1" d="M8.1,15H7.43A7.43,7.43,0,0,1,0,7.55H0A7.43,7.43,0,0,1,7.43.12H8.1a7.43,7.43,0,0,1,7.42,7.43h0A7.43,7.43,0,0,1,8.1,15Z"/><path class="cls-2" d="M22.63,1.29h1.23V13.85H22.63Z"/><path class="cls-2" d="M35.09,1.29V2.36h-4V13.85H29.84V2.36h-4V1.29Z"/><path class="cls-2" d="M49.42,13.85c-.81-1.44-1.68-2.86-2.63-4.26a44.37,44.37,0,0,0-3-4v8.23H41V1.29h2.3q.6.6,1.32,1.47c.48.58,1,1.2,1.48,1.86s1,1.34,1.49,2,1,1.39,1.4,2V1.29h2.8V13.85Z"/><path class="cls-2" d="M55.43,13.85V1.29h8.48V3.67H58.26V6.13h5V8.45h-5v3h6.07v2.38Z"/><path class="cls-2" d="M75.59,2.63l.48,1.68c.17.62.36,1.26.56,1.93l.6,2c.21.66.41,1.28.6,1.85q.24-.93.48-2c.17-.73.32-1.48.47-2.25s.29-1.54.42-2.31.27-1.5.4-2.22h2.93c-.42,2.1-.91,4.24-1.47,6.4s-1.15,4.21-1.79,6.16H76.69c-.43-1.16-.84-2.38-1.23-3.65s-.79-2.56-1.18-3.83c-.39,1.27-.77,2.55-1.16,3.83s-.79,2.49-1.21,3.65H69.32q-1-2.92-1.79-6.16c-.55-2.16-1-4.3-1.46-6.4h3.06c.12.72.25,1.46.4,2.22s.3,1.54.45,2.31.32,1.52.49,2.25.33,1.39.5,2c.21-.59.43-1.22.63-1.89s.41-1.32.6-2,.37-1.3.54-1.92l.44-1.65Z"/><path class="cls-2" d="M88.49,11.69a3.92,3.92,0,0,0,1-.1,1.89,1.89,0,0,0,.62-.27.91.91,0,0,0,.33-.41,1.46,1.46,0,0,0,.09-.52,1.21,1.21,0,0,0-.58-1,8.68,8.68,0,0,0-2-.88c-.41-.14-.82-.31-1.23-.49a4.89,4.89,0,0,1-1.11-.71,3.56,3.56,0,0,1-.8-1,3.34,3.34,0,0,1-.3-1.48,3.64,3.64,0,0,1,.32-1.57A3.34,3.34,0,0,1,85.76,2a4,4,0,0,1,1.44-.75A6.36,6.36,0,0,1,89.12,1a7.54,7.54,0,0,1,2.2.28,8.48,8.48,0,0,1,1.52.59L92,4.1a7.92,7.92,0,0,0-1.17-.48,4.94,4.94,0,0,0-1.54-.21,2.9,2.9,0,0,0-1.46.28,1,1,0,0,0-.45.86,1,1,0,0,0,.17.58,1.6,1.6,0,0,0,.46.43,3.7,3.7,0,0,0,.69.34c.26.11.54.21.86.32a17.08,17.08,0,0,1,1.7.72,4.52,4.52,0,0,1,1.2.82,3,3,0,0,1,.72,1.1,4.41,4.41,0,0,1,.24,1.54,3.25,3.25,0,0,1-1.24,2.73,5.91,5.91,0,0,1-3.71,1A9.75,9.75,0,0,1,87,14c-.45-.07-.84-.15-1.19-.24a7.56,7.56,0,0,1-.89-.31c-.24-.11-.45-.21-.62-.31l.8-2.25a7,7,0,0,0,1.38.56A7.31,7.31,0,0,0,88.49,11.69Z"/><path class="cls-2" d="M9.45,7.9a2.1,2.1,0,0,1-.71,1.71,2.43,2.43,0,0,1-1.61.59,2.45,2.45,0,0,1-1.62-.59A2.1,2.1,0,0,1,4.8,7.9a2.1,2.1,0,0,1,.71-1.71A2.51,2.51,0,0,1,7.13,5.6a2.48,2.48,0,0,1,1.61.59A2.1,2.1,0,0,1,9.45,7.9Z"/><path class="cls-2" d="M15.35,7.9a2.1,2.1,0,0,1-.71,1.71A2.43,2.43,0,0,1,13,10.2a2.45,2.45,0,0,1-1.62-.59A2.1,2.1,0,0,1,10.7,7.9a2.1,2.1,0,0,1,.71-1.71A2.51,2.51,0,0,1,13,5.6a2.48,2.48,0,0,1,1.61.59A2.1,2.1,0,0,1,15.35,7.9Z"/></g></g></svg>