<svg xmlns="http://www.w3.org/2000/svg" viewBox="0 0 9.19 9.2"><defs><style>.cls-1{fill:#fff;}</style></defs><g id="Layer_2" data-name="Layer 2"><g id="Слой_1" data-name="Слой 1"><path class="cls-1" d="M7.47,8.59l-.07,0,0-.05,0,0A1.72,1.72,0,0,0,6.86,8h0c-.08-.15-.24-.23-.33-.36a.08.08,0,0,0-.12,0c-.2.15-.44.22-.63.38h0a1.46,1.46,0,0,0-.5.16H5.21a4.19,4.19,0,0,1-3-.36c-.23-.12-.44-.27-.66-.41h0c-.05-.06-.09-.12-.18-.12h0a3.89,3.89,0,0,0-.43-.48h0A4.41,4.41,0,0,1,.13,5.17l-.06,0V5A6.23,6.23,0,0,1,0,3.73,4.12,4.12,0,0,1,2,.58,3.29,3.29,0,0,0,2.64.24h.07C3.09.15,3.47.05,3.86,0h.5c.35.05.7.11,1,.19h.1c.25.18.56.26.82.42a7.36,7.36,0,0,1,.77.61L7.66,2h0l.27.5,0,.11a8.82,8.82,0,0,1,.3,1.23v.57s0,0,0,0a4.09,4.09,0,0,1-.6,1.9.22.22,0,0,0-.05.17h0l0,0h0a.47.47,0,0,0,.23.23h0a6,6,0,0,0,.61.62h0a5.78,5.78,0,0,0,.49.5.77.77,0,0,1,.12,1,.91.91,0,0,1-.53.37H8.28a3.43,3.43,0,0,1-.49-.28h0s0,0,0,0h0A.65.65,0,0,0,7.47,8.59ZM2,2.71H2A2,2,0,0,0,1.53,4V4.3a2.12,2.12,0,0,0,.31,1.1,1.91,1.91,0,0,0,.64.74h0a2.21,2.21,0,0,0,1.5.6h.31a1.67,1.67,0,0,0,.8-.17,1.06,1.06,0,0,0,.47-.27h0a.35.35,0,0,0,.23-.16l0,0a.93.93,0,0,0,.36-.4h0c.06,0,.09-.07.12-.11A2.54,2.54,0,0,0,6.49,3,2.59,2.59,0,0,0,3.81,1.54a2.17,2.17,0,0,0-1.29.57h0a1.09,1.09,0,0,0-.37.34l0,0A.46.46,0,0,0,2,2.71Z"/></g></g></svg>