<svg xmlns="http://www.w3.org/2000/svg" viewBox="0 0 9.91 9.9"><defs><style>.cls-1{fill:#f9f9f9;}</style></defs><g id="Layer_2" data-name="Layer 2"><g id="Слой_1" data-name="Слой 1"><g id="JuOaiv.tif"><path class="cls-1" d="M0,.84V.74s0,0,0-.05A.74.74,0,0,1,.69,0a7,7,0,0,1,1,0A8.87,8.87,0,0,1,3.47.39,9.05,9.05,0,0,1,7,2.45,9.24,9.24,0,0,1,9.25,5.68a8.94,8.94,0,0,1,.66,3.39.73.73,0,0,1-.33.67,1.8,1.8,0,0,1-.38.16H9l0,0a.77.77,0,0,1-.65-.69c0-.2,0-.4,0-.6a7.06,7.06,0,0,0-.42-2,7.4,7.4,0,0,0-2.2-3.17A7.43,7.43,0,0,0,3,1.91,7.63,7.63,0,0,0,.84,1.59a.78.78,0,0,1-.75-.45A2.63,2.63,0,0,1,0,.84Z"/><path class="cls-1" d="M6.08,9.9a1.05,1.05,0,0,1-.42-.18A.86.86,0,0,1,5.35,9,4.19,4.19,0,0,0,5,7.4,4.5,4.5,0,0,0,1.8,4.66a6.93,6.93,0,0,0-1-.12A.8.8,0,0,1,0,3.94l0-.08V3.61a2.42,2.42,0,0,1,.18-.36.77.77,0,0,1,.66-.31,6,6,0,0,1,2.81.7,6.15,6.15,0,0,1,3,3.5,5.66,5.66,0,0,1,.31,2,.77.77,0,0,1-.67.74l0,0Z"/><path class="cls-1" d="M1.62,9.88a1.6,1.6,0,1,1,1.61-1.6A1.6,1.6,0,0,1,1.62,9.88Z"/></g></g></g></svg>